<svg width="16" height="16" viewBox="0 0 16 16" fill="none" xmlns="http://www.w3.org/2000/svg">
<path fill-rule="evenodd" clip-rule="evenodd" d="M2.14647 3.24903C2.3474 2.89918 3.45511 1.6292 4.24446 1.66754C4.48061 1.68876 4.68937 1.83801 4.85898 2.0119H4.85964C5.24844 2.41173 6.36398 3.92065 6.4266 4.23832C6.58121 5.01742 5.69596 5.46654 5.96669 6.25181C6.65689 8.02431 7.84614 9.27239 9.53575 9.99604C10.2834 10.2808 10.7113 9.35249 11.4537 9.51406C11.7564 9.58047 13.1948 10.7505 13.5752 11.1592V11.1592C13.7402 11.3365 13.8837 11.5563 13.9033 11.8041C13.9327 12.677 12.6475 13.8553 12.397 14.0059C11.806 14.4502 11.0349 14.442 10.0948 13.9833C7.47168 12.8379 3.27962 8.52135 2.168 5.6644C1.74266 4.68333 1.71396 3.86862 2.14647 3.24903Z" stroke="white" stroke-linecap="round" stroke-linejoin="round"/>
<path d="M9.49902 1.83334C11.8505 2.10734 13.7071 4.05401 13.9714 6.52134" stroke="white" stroke-linecap="round" stroke-linejoin="round"/>
<path d="M9.49902 4.19534C10.6233 4.42534 11.5018 5.34734 11.7209 6.52734" stroke="white" stroke-linecap="round" stroke-linejoin="round"/>
</svg>
